<?xml version="1.0" encoding="utf-8"?>
<!-- Generator: Adobe Illustrator 16.0.3, SVG Export Plug-In . SVG Version: 6.00 Build 0)  -->
<!DOCTYPE svg PUBLIC "-//W3C//DTD SVG 1.1//EN" "http://www.w3.org/Graphics/SVG/1.1/DTD/svg11.dtd">
<svg version="1.1" id="Layer_1" xmlns="http://www.w3.org/2000/svg" xmlns:xlink="http://www.w3.org/1999/xlink" x="0px" y="0px"
	 width="1792px" height="1792px" viewBox="0 0 1792 1792" enable-background="new 0 0 1792 1792" xml:space="preserve">
<path fill="#10222B" d="M1452.363,1290.091V733.727c-15.454,17.387-32.116,33.324-49.985,47.813
	c-129.432,99.489-232.302,181.109-308.608,244.859c-24.631,20.767-44.673,36.945-60.127,48.536
	c-15.455,11.591-36.343,23.303-62.664,35.135c-26.32,11.832-51.072,17.749-74.254,17.749h-1.449
	c-23.182,0-47.933-5.917-74.254-17.749s-47.209-23.544-62.664-35.135c-15.454-11.591-35.497-27.77-60.128-48.536
	c-76.306-63.75-179.176-145.37-308.608-244.859c-17.869-14.488-34.531-30.426-49.986-47.813v556.364
	c0,6.278,2.294,11.712,6.882,16.3s10.021,6.882,16.3,6.882h1066.363c6.279,0,11.712-2.294,16.3-6.882
	S1452.363,1296.369,1452.363,1290.091z M1452.363,528.713v-17.749l-0.362-9.417l-2.173-9.056l-3.984-6.52l-6.52-5.434l-10.143-1.811
	H362.818c-6.278,0-11.711,2.294-16.3,6.882s-6.882,10.021-6.882,16.3c0,81.136,35.498,149.716,106.492,205.738
	c93.21,73.409,190.042,149.958,290.497,229.646c2.898,2.414,11.35,9.538,25.355,21.371c14.006,11.832,25.114,20.887,33.324,27.166
	c8.21,6.278,18.956,13.885,32.237,22.818c13.281,8.936,25.477,15.576,36.584,19.923c11.108,4.347,21.492,6.52,31.15,6.52h1.449
	c9.658,0,20.043-2.173,31.15-6.52s23.303-10.987,36.584-19.923c13.281-8.934,24.027-16.54,32.237-22.818
	c8.21-6.279,19.318-15.334,33.323-27.166c14.006-11.833,22.458-18.957,25.355-21.371
	c100.455-79.688,197.287-156.236,290.497-229.646c26.08-20.767,50.348-48.658,72.806-83.672
	C1441.135,588.962,1452.363,557.207,1452.363,528.713z M1545.091,501.909v788.182c0,31.875-11.35,59.162-34.048,81.861
	c-22.699,22.698-49.986,34.048-81.861,34.048H362.818c-31.875,0-59.162-11.35-81.861-34.048
	c-22.699-22.699-34.048-49.986-34.048-81.861V501.909c0-31.875,11.349-59.162,34.048-81.861
	C303.656,397.349,330.943,386,362.818,386h1066.363c31.875,0,59.162,11.349,81.861,34.048
	C1533.741,442.747,1545.091,470.034,1545.091,501.909z"/>
</svg>
