<?xml version="1.0" encoding="utf-8"?>
<!-- Generator: Adobe Illustrator 16.0.3, SVG Export Plug-In . SVG Version: 6.00 Build 0)  -->
<!DOCTYPE svg PUBLIC "-//W3C//DTD SVG 1.1//EN" "http://www.w3.org/Graphics/SVG/1.1/DTD/svg11.dtd">
<svg version="1.1" id="Layer_1" xmlns="http://www.w3.org/2000/svg" xmlns:xlink="http://www.w3.org/1999/xlink" x="0px" y="0px"
	 width="1792px" height="1792px" viewBox="0 0 1792 1792" enable-background="new 0 0 1792 1792" xml:space="preserve">
<path fill="#10222B" d="M1372.311,544.892c12.701,12.702,23.588,29.939,32.66,51.714c9.072,21.774,13.609,41.733,13.609,59.879
	v783.869c0,18.146-6.352,33.568-19.053,46.27c-12.701,12.703-28.125,19.053-46.27,19.053H438.743
	c-18.145,0-33.568-6.35-46.27-19.053c-12.701-12.701-19.052-28.123-19.052-46.27V351.646c0-18.145,6.351-33.568,19.052-46.27
	c12.702-12.701,28.125-19.052,46.27-19.052h609.676c18.146,0,38.104,4.536,59.879,13.609s39.013,19.959,51.714,32.661
	L1372.311,544.892z M1070.193,378.864V634.71h255.846c-4.535-13.155-9.525-22.455-14.969-27.898l-212.979-212.979
	C1092.648,388.39,1083.348,383.4,1070.193,378.864z M1331.482,1418.58V721.807h-283.063c-18.146,0-33.567-6.351-46.271-19.052
	c-12.701-12.702-19.052-28.125-19.052-46.27V373.42h-522.58v1045.16H1331.482z M634.71,830.678c0-6.351,2.041-11.568,6.124-15.65
	c4.083-4.083,9.299-6.124,15.65-6.124h479.031c6.351,0,11.568,2.042,15.65,6.124s6.123,9.3,6.123,15.65v43.548
	c0,6.351-2.041,11.567-6.123,15.65s-9.3,6.124-15.65,6.124H656.484c-6.351,0-11.567-2.042-15.65-6.124
	c-4.083-4.083-6.124-9.299-6.124-15.65V830.678z M1135.516,983.097c6.351,0,11.568,2.042,15.65,6.124s6.123,9.299,6.123,15.65
	v43.548c0,6.351-2.041,11.567-6.123,15.65s-9.3,6.124-15.65,6.124H656.484c-6.351,0-11.567-2.041-15.65-6.124
	c-4.083-4.083-6.124-9.3-6.124-15.65v-43.548c0-6.352,2.041-11.568,6.124-15.65c4.083-4.082,9.299-6.124,15.65-6.124H1135.516z
	 M1135.516,1157.29c6.351,0,11.568,2.041,15.65,6.124c4.082,4.082,6.123,9.299,6.123,15.65v43.547c0,6.352-2.041,11.568-6.123,15.65
	c-4.082,4.084-9.3,6.125-15.65,6.125H656.484c-6.351,0-11.567-2.041-15.65-6.125c-4.083-4.082-6.124-9.299-6.124-15.65v-43.547
	c0-6.352,2.041-11.568,6.124-15.65c4.083-4.083,9.299-6.124,15.65-6.124H1135.516z"/>
</svg>
