<?xml version="1.0" encoding="utf-8"?>
<!-- Generator: Adobe Illustrator 16.0.3, SVG Export Plug-In . SVG Version: 6.00 Build 0)  -->
<!DOCTYPE svg PUBLIC "-//W3C//DTD SVG 1.1//EN" "http://www.w3.org/Graphics/SVG/1.1/DTD/svg11.dtd">
<svg version="1.1" id="Layer_1" xmlns="http://www.w3.org/2000/svg" xmlns:xlink="http://www.w3.org/1999/xlink" x="0px" y="0px"
	 width="1792px" height="1792px" viewBox="0 0 1792 1792" enable-background="new 0 0 1792 1792" xml:space="preserve">
<path fill="#10222B" d="M1451.064,1300.856c29.816,47.387,35.54,87.985,17.171,121.795c-18.369,33.811-55.772,50.715-112.211,50.715
	H435.976c-56.438,0-93.842-16.904-112.211-50.715c-18.369-33.81-12.646-74.408,17.171-121.795l401.723-633.332V348.861h-51.114
	c-13.843,0-25.823-5.059-35.939-15.175c-10.117-10.116-15.175-22.096-15.175-35.939s5.058-25.823,15.175-35.939
	c10.116-10.116,22.096-15.174,35.939-15.174h408.91c13.844,0,25.823,5.058,35.939,15.174s15.174,22.096,15.174,35.939
	s-5.058,25.823-15.174,35.939s-22.096,15.175-35.939,15.175h-51.113v318.663L1451.064,1300.856z M828.914,721.833l-217.234,342.622
	h568.641L963.087,721.833l-15.974-24.759V348.861H844.886v348.213L828.914,721.833z"/>
</svg>
