<?xml version="1.0" encoding="UTF-8" standalone="no"?><!DOCTYPE svg PUBLIC "-//W3C//DTD SVG 1.1//EN" "http://www.w3.org/Graphics/SVG/1.1/DTD/svg11.dtd"><svg width="100%" height="100%" viewBox="0 0 800 800" version="1.1" xmlns="http://www.w3.org/2000/svg" xmlns:xlink="http://www.w3.org/1999/xlink" xml:space="preserve" xmlns:serif="http://www.serif.com/" style="fill-rule:evenodd;clip-rule:evenodd;stroke-linejoin:round;stroke-miterlimit:2;"><g><g><path d="M210.096,150c-33.21,0 -60.09,26.975 -60.096,60.167c0,33.224 26.881,60.194 60.101,60.194c33.129,0 60.047,-26.97 60.047,-60.194c0,-33.197 -26.923,-60.167 -60.053,-60.167Z" style="fill:#10222b;fill-rule:nonzero;"/><rect x="158.263" y="316.017" width="103.627" height="333.983" style="fill:#10222b;"/><path d="M525.698,307.713c-50.408,0 -84.209,27.686 -98.044,53.94l-1.386,0l0,-45.635l-99.393,0l0,333.977l103.535,0l0,-165.221c0,-43.558 8.28,-85.748 62.191,-85.748c53.138,0 53.847,49.817 53.847,88.541l0,162.422l103.551,0l0,-183.186c0,-89.919 -19.369,-159.09 -124.302,-159.09Z" style="fill:#10222b;fill-rule:nonzero;"/></g></g></svg>